<svg width="30.528" height="27.233" viewBox="0 0 30.528 27.233" xmlns="http://www.w3.org/2000/svg"><g id="svgGroup" stroke-linecap="round" fill-rule="evenodd" font-size="9pt" stroke="#3089fc" stroke-width="0.25mm" fill="#000" style="stroke:#3089fc;stroke-width:0.25mm;fill:#000"><path d="M 30.192 20.19 A 0.712 0.712 0 0 0 29.632 19.936 A 1.004 1.004 0 0 0 29.037 20.134 A 1.525 1.525 0 0 0 28.768 20.384 A 31.849 31.849 0 0 1 28.317 20.906 Q 27.602 21.715 27.026 22.242 A 7.63 7.63 0 0 1 26.432 22.736 A 4.012 4.012 0 0 1 26.037 22.996 A 3.09 3.09 0 0 1 24.48 23.424 A 2.648 2.648 0 0 1 23.27 23.141 A 3.135 3.135 0 0 1 22.448 22.528 A 4.714 4.714 0 0 1 22.342 22.416 Q 21.514 21.516 20.672 19.712 Q 19.84 17.92 19.008 16.992 A 3.655 3.655 0 0 0 18.768 16.748 Q 17.966 16.007 16.64 15.648 Q 19.072 15.008 20.768 13.696 Q 22.464 12.384 23.312 10.672 A 9.044 9.044 0 0 0 23.415 10.458 A 7.754 7.754 0 0 0 24.16 7.168 A 8.168 8.168 0 0 0 24.156 6.914 A 6.803 6.803 0 0 0 23.152 3.488 Q 22.144 1.856 20.064 0.928 A 8.914 8.914 0 0 0 19.203 0.597 Q 17.377 0 14.912 0 A 17.556 17.556 0 0 0 13.03 0.099 A 14.066 14.066 0 0 0 7.12 2.064 A 12.99 12.99 0 0 0 4.454 4.222 A 14.78 14.78 0 0 0 1.872 8.032 Q 0.819 10.228 0.359 12.89 A 25.935 25.935 0 0 0 0 17.312 A 16.294 16.294 0 0 0 0.148 19.549 A 12.46 12.46 0 0 0 0.896 22.448 Q 1.792 24.704 3.44 25.968 Q 5.088 27.232 7.232 27.232 Q 8.147 27.232 8.844 27.004 A 3.004 3.004 0 0 0 10.144 26.192 A 3.998 3.998 0 0 0 10.611 25.573 Q 10.918 25.073 11.129 24.434 A 8.167 8.167 0 0 0 11.424 23.2 A 10.236 10.236 0 0 0 11.433 23.15 Q 11.505 22.745 11.744 21.248 Q 12.352 17.696 12.48 17.024 A 3.513 3.513 0 0 1 13.018 17.125 A 2.669 2.669 0 0 1 13.936 17.568 A 2.423 2.423 0 0 1 13.963 17.589 Q 14.357 17.896 14.758 18.464 A 8.276 8.276 0 0 1 15.136 19.056 Q 15.744 20.096 16.8 22.272 Q 17.661 24.057 18.584 25.153 A 6.416 6.416 0 0 0 19.568 26.112 Q 21.024 27.232 23.104 27.232 Q 25.248 27.232 26.816 26.224 Q 28.384 25.216 29.92 23.36 Q 30.528 22.624 30.528 21.376 A 3.226 3.226 0 0 0 30.515 21.073 Q 30.495 20.863 30.446 20.687 A 1.4 1.4 0 0 0 30.288 20.32 A 1.013 1.013 0 0 0 30.192 20.19 Z M 7.2 21.792 L 8.064 16.992 A 3.605 3.605 0 0 1 7.549 16.958 Q 6.873 16.86 6.576 16.48 Q 6.176 15.968 6.176 15.328 Q 6.176 14.56 6.672 14.112 Q 7.168 13.664 7.808 13.664 L 8.608 13.664 Q 8.96 11.508 9.282 9.76 A 121.647 121.647 0 0 1 9.568 8.256 Q 9.9 6.599 11.409 6.262 A 3.892 3.892 0 0 1 12.256 6.176 A 2.969 2.969 0 0 1 12.945 6.249 Q 14.08 6.52 14.08 7.808 Q 14.08 8.098 14.059 8.28 A 1.599 1.599 0 0 1 14.048 8.352 L 13.088 13.664 A 7.983 7.983 0 0 0 15.392 13.204 A 7.262 7.262 0 0 0 16.24 12.832 Q 17.664 12.096 18.512 10.784 A 5.318 5.318 0 0 0 19.357 8.015 A 6.405 6.405 0 0 0 19.36 7.808 Q 19.36 5.792 17.984 4.64 Q 16.923 3.751 15.099 3.548 A 10.376 10.376 0 0 0 13.952 3.488 A 10.716 10.716 0 0 0 10.927 3.901 A 9.079 9.079 0 0 0 8.464 5.04 A 9.285 9.285 0 0 0 5.773 7.805 A 12.459 12.459 0 0 0 4.8 9.648 A 15.118 15.118 0 0 0 3.859 12.805 Q 3.488 14.759 3.488 17.088 A 16.946 16.946 0 0 0 3.557 18.657 Q 3.657 19.734 3.904 20.608 A 9.893 9.893 0 0 0 4.183 21.456 Q 4.505 22.296 4.914 22.799 A 2.98 2.98 0 0 0 4.928 22.816 Q 5.445 23.442 5.915 23.536 A 0.84 0.84 0 0 0 6.08 23.552 A 0.741 0.741 0 0 0 6.633 23.308 A 1.18 1.18 0 0 0 6.768 23.136 A 1.847 1.847 0 0 0 6.924 22.835 Q 7.089 22.437 7.2 21.792 Z" vector-effect="non-scaling-stroke"/></g></svg>